<?xml version="1.0" standalone="no"?>
<!DOCTYPE svg PUBLIC "-//W3C//DTD SVG 20010904//EN"
 "http://www.w3.org/TR/2001/REC-SVG-20010904/DTD/svg10.dtd">
<svg version="1.0" xmlns="http://www.w3.org/2000/svg"
 width="820.000000pt" height="820.000000pt" viewBox="0 0 820.000000 820.000000"
 preserveAspectRatio="xMidYMid meet">
<metadata>
Created by potrace 1.14, written by Peter Selinger 2001-2017
</metadata>
<g transform="translate(0.000000,820.000000) scale(0.100000,-0.100000)"
fill="#000000" stroke="none">
<path d="M3889 7616 c-2 -2 -40 -6 -84 -10 -149 -11 -240 -23 -385 -51 -192
-37 -422 -103 -605 -174 -16 -6 -43 -17 -60 -23 -62 -24 -295 -134 -355 -168
-171 -97 -271 -159 -282 -175 -5 -6 -8 -6 -8 0 0 6 -3 6 -8 0 -4 -6 -23 -22
-42 -35 -19 -13 -37 -27 -40 -30 -3 -3 -18 -14 -33 -23 -33 -21 -31 -20 -156
-123 -134 -110 -222 -193 -368 -350 -54 -58 -71 -78 -128 -149 -22 -27 -44
-55 -50 -62 -24 -29 -33 -41 -65 -88 -34 -48 -41 -58 -68 -90 -7 -8 -9 -15 -5
-15 4 0 3 -4 -2 -8 -11 -8 -85 -118 -85 -127 0 -2 -15 -28 -34 -57 -26 -42
-150 -273 -156 -293 -1 -3 -4 -14 -7 -25 -3 -11 -10 -20 -16 -20 -6 0 -7 -3
-4 -6 3 -4 1 -16 -5 -28 -7 -11 -13 -23 -13 -26 -1 -3 -9 -22 -18 -44 -9 -21
-17 -41 -17 -43 0 -3 -7 -19 -14 -36 -49 -106 -144 -441 -171 -599 -3 -18 -8
-40 -10 -48 -2 -8 -6 -35 -9 -60 -4 -25 -9 -58 -11 -74 -6 -30 -10 -70 -23
-201 -14 -158 -6 -589 13 -710 3 -16 7 -48 9 -70 2 -22 12 -80 21 -130 10 -49
19 -101 22 -115 9 -51 55 -227 79 -305 14 -44 27 -89 30 -99 2 -11 8 -24 14
-30 5 -5 10 -20 10 -31 0 -12 3 -25 7 -29 4 -3 8 -12 9 -19 4 -26 108 -263
122 -279 8 -10 12 -18 9 -18 -7 0 88 -183 114 -222 11 -14 19 -29 19 -32 0 -4
12 -25 27 -49 16 -23 30 -46 33 -52 12 -23 66 -100 73 -103 4 -2 7 -8 7 -13 0
-8 127 -180 175 -237 11 -13 28 -33 38 -45 97 -116 231 -254 337 -346 35 -31
82 -73 105 -94 22 -20 46 -37 52 -37 7 0 13 -4 13 -8 0 -5 21 -24 48 -42 26
-19 48 -38 50 -42 2 -4 10 -8 17 -8 7 0 15 -4 17 -8 6 -14 185 -132 308 -203
76 -44 324 -169 334 -169 4 0 25 -8 49 -19 58 -25 162 -66 222 -86 28 -10 57
-20 65 -23 17 -6 16 -6 90 -27 75 -22 75 -22 165 -44 104 -25 281 -59 348 -66
28 -4 66 -8 82 -10 219 -32 688 -26 915 11 19 3 44 7 55 9 64 10 108 18 170
32 39 8 79 16 90 19 11 2 61 15 110 29 50 14 114 32 142 40 71 20 280 100 373
142 88 41 226 109 255 126 11 7 52 30 90 51 57 32 196 124 329 216 37 26 170
134 187 153 9 9 19 17 22 17 21 0 347 332 347 353 0 4 5 5 10 2 6 -3 10 -2 10
2 0 10 25 44 60 82 64 69 310 425 310 450 0 5 3 11 8 13 4 1 15 19 26 38 65
123 104 200 99 200 -2 0 5 13 16 29 12 16 21 35 21 43 0 8 4 18 9 24 28 30
175 445 196 553 2 9 10 43 18 76 18 72 46 206 52 255 2 19 7 53 10 75 11 70
14 88 22 170 10 100 10 547 0 635 -4 36 -10 83 -12 104 -2 22 -7 55 -10 75 -3
20 -8 54 -11 76 -2 22 -7 47 -9 55 -2 8 -7 29 -9 45 -7 39 -23 114 -30 143 -3
12 -8 30 -10 40 -2 9 -10 37 -17 62 -7 25 -14 52 -15 61 -6 31 -86 264 -100
291 -8 16 -12 28 -10 28 3 0 -15 44 -38 98 -82 186 -105 231 -236 458 -21 36
-132 206 -140 214 -3 3 -32 41 -64 84 -61 82 -89 117 -118 148 -10 10 -18 23
-18 29 0 5 -4 7 -10 4 -5 -3 -10 -2 -10 3 0 21 -197 221 -351 357 -53 48 -227
185 -234 185 -6 0 -20 10 -50 38 -7 6 -16 12 -20 12 -3 0 -11 5 -18 11 -33 29
-263 169 -277 169 -5 0 -10 3 -12 8 -7 17 -326 164 -468 216 -41 15 -82 30
-90 33 -8 3 -19 7 -25 8 -5 1 -32 10 -60 20 -58 19 -41 15 -216 59 -75 19
-151 37 -170 40 -19 3 -45 8 -59 11 -14 3 -45 8 -70 11 -25 3 -52 7 -60 9 -8
2 -46 7 -85 11 -38 3 -79 8 -90 11 -24 6 -521 14 -526 9z"/>
</g>
</svg>
